<svg width="72" height="72" fill="none" xmlns="http://www.w3.org/2000/svg">
    <path d="M63 25.155V6.715a7.081 7.081 0 0 0-.473-2.57 6.74 6.74 0 0 0-1.362-2.18A6.27 6.27 0 0 0 59.123.51 5.944 5.944 0 0 0 56.713 0H39.424c-1.133.002-2.22.481-3.024 1.333L1.84 38.164C.66 39.424 0 41.132 0 42.912c0 1.78.662 3.487 1.84 4.747L18.295 65.2c1.182 1.257 2.783 1.962 4.453 1.962 1.67 0 3.27-.706 4.453-1.962l34.55-36.82A4.746 4.746 0 0 0 63 25.155Zm-13.5-5.967c-.89 0-1.76-.28-2.5-.808a4.744 4.744 0 0 1-1.658-2.153 5.092 5.092 0 0 1-.256-2.771 4.902 4.902 0 0 1 1.232-2.457 4.421 4.421 0 0 1 2.304-1.313 4.242 4.242 0 0 1 2.6.273 4.575 4.575 0 0 1 2.02 1.767c.494.79.758 1.716.758 2.665a4.963 4.963 0 0 1-1.318 3.392c-.844.9-1.989 1.405-3.182 1.405Z" fill="#1AA090"/>
    <path d="M69.75 7.196c-.597 0-1.17.252-1.591.702a2.481 2.481 0 0 0-.66 1.696v19.094L30.754 67.862c-.218.221-.392.486-.512.78a2.535 2.535 0 0 0-.023 1.863c.114.297.281.566.494.792.212.227.465.406.743.526a2.128 2.128 0 0 0 1.748-.024c.276-.128.524-.314.73-.546l36.845-39.276c.392-.42.701-.918.911-1.466.21-.549.316-1.136.31-1.729V9.595c0-.636-.236-1.246-.658-1.696a2.181 2.181 0 0 0-1.591-.702Z" fill="#1AA090"/>
</svg>
