<svg width="72" height="72" viewBox="0 0 72 72" fill="none" xmlns="http://www.w3.org/2000/svg">
<path d="M52.7953 46.4333H49.459L48.2765 45.2938C50.9158 42.2294 52.8447 38.6199 53.9252 34.7236C55.0057 30.8273 55.2111 26.7404 54.5268 22.7554C52.5419 11.022 42.7442 1.65213 30.9194 0.217109C26.7622 -0.308507 22.5398 0.123291 18.5753 1.47946C14.6108 2.83563 11.0092 5.08023 8.04622 8.0415C5.08321 11.0028 2.8373 14.6022 1.48033 18.5644C0.123363 22.5266 -0.308688 26.7466 0.217237 30.9013C1.6531 42.7192 11.0285 52.5111 22.7688 54.4948C26.7561 55.1788 30.8453 54.9735 34.744 53.8936C38.6426 52.8137 42.2542 50.8859 45.3203 48.2482L46.4606 49.43V52.7643L64.4089 70.7021C66.1404 72.4326 68.9699 72.4326 70.7014 70.7021C72.4329 68.9717 72.4329 66.1438 70.7014 64.4134L52.7953 46.4333ZM27.4565 46.4333C16.9409 46.4333 8.45235 37.9498 8.45235 27.4404C8.45235 16.9309 16.9409 8.4474 27.4565 8.4474C37.9721 8.4474 46.4606 16.9309 46.4606 27.4404C46.4606 37.9498 37.9721 46.4333 27.4565 46.4333Z" fill="#1AA090"/>
</svg>
