<svg width="241" height="241" viewBox="0 0 241 241" fill="none" xmlns="http://www.w3.org/2000/svg">
<path d="M137.383 159.582L205.556 227.755" stroke="#1AA090" stroke-width="16"/>
<path d="M159.582 137.383L227.755 205.556" stroke="#1AA090" stroke-width="16"/>
<path d="M227.755 205.557C230.699 208.5 232.352 212.493 232.352 216.656C232.352 220.819 230.699 224.811 227.755 227.755" stroke="#1AA090" stroke-width="16" stroke-linecap="round" stroke-linejoin="round"/>
<path d="M205.557 227.755C208.5 230.699 212.493 232.353 216.656 232.353C220.819 232.353 224.812 230.699 227.755 227.755" stroke="#1AA090" stroke-width="16" stroke-linecap="round" stroke-linejoin="round"/>
<path d="M78.6355 7.99991C87.9115 7.99991 97.0967 9.82694 105.667 13.3767C114.236 16.9265 122.023 22.1295 128.582 28.6886C135.142 35.2477 140.345 43.0345 143.894 51.6044C147.444 60.1743 149.271 69.3595 149.271 78.6355C149.271 87.9114 147.444 97.0966 143.894 105.667C140.345 114.236 135.142 122.023 128.582 128.582C122.023 135.141 114.236 140.344 105.667 143.894C97.0967 147.444 87.9115 149.271 78.6355 149.271C59.9018 149.271 41.9354 141.829 28.6887 128.582C15.4419 115.336 8 97.3692 8 78.6355C8 69.3595 9.82704 60.1743 13.3768 51.6044C16.9266 43.0345 22.1296 35.2477 28.6887 28.6886C35.2478 22.1295 43.0346 16.9265 51.6045 13.3767C60.1744 9.82694 69.3596 7.99991 78.6355 7.99991Z" stroke="#1AA090" stroke-width="16" stroke-linecap="round" stroke-linejoin="round"/>
<path d="M137.383 159.582L159.581 137.383" stroke="#1AA090" stroke-width="16" stroke-linecap="round" stroke-linejoin="round"/>
<path d="M148.482 148.482L128.583 128.583" stroke="#1AA090" stroke-width="16" stroke-linecap="round" stroke-linejoin="round"/>
<path d="M156.331 178.529L178.529 156.331" stroke="#1AA090" stroke-width="16" stroke-linecap="round" stroke-linejoin="round"/>
<path d="M78.6357 39.3935C89.0434 39.3935 99.0247 43.528 106.384 50.8873C113.743 58.2465 117.878 68.2279 117.878 78.6355" stroke="#1AA090" stroke-width="16" stroke-linecap="round" stroke-linejoin="round"/>
</svg>
