<svg width="72" height="72" fill="none" xmlns="http://www.w3.org/2000/svg">
    <path d="m65.322 22.32 5.627-6.62-5.09-5.989-6.15 7.23c-3.78-2.668-8.186-4.235-12.909-4.235-13.892 0-25.2 13.299-25.2 29.647S32.908 72 46.8 72C60.693 72 72 58.701 72 42.353c-.003-7.429-2.388-14.583-6.678-20.033ZM46.8 63.53c-9.925 0-18-9.5-18-21.177s8.075-21.177 18-21.177 18 9.5 18 21.177-8.075 21.176-18 21.176Z" fill="#1AA090"/>
    <path d="M43.2 29.647h7.2v16.941h-7.2v-16.94ZM39.6 0H54v8.47H39.6V0Zm-36 21.177H18v8.47H3.6v-8.47Zm0 33.882H18v8.47H3.6v-8.47ZM0 38.118h14.364v8.47H0v-8.47Z" fill="#1AA090"/>
</svg>
